<svg version="1.1" xmlns="http://www.w3.org/2000/svg" width="27" height="32" viewBox="0 0 27 32">
<title>icon_Document_TxPlan</title>
<path fill="#104d6a" opacity="0.75" d="M21.333 27.429h-19.048v-1.524h19.048v-24.381h1.524v25.905z"></path>
<path fill="#104d6a" opacity="0.5" d="M25.113 28.19h0.030v1.524h-20.571v-1.524h19.018v-24.381h1.524z"></path>
<path fill="#104d6a" opacity="0.25" d="M25.905 32h-19.048v-1.524h19.048v-24.381h1.524v25.905z"></path>
<path fill="#fff" stroke="#104d6a" stroke-width="1.5238" stroke-miterlimit="4" stroke-linecap="butt" stroke-linejoin="miter" d="M0.762 0.762h19.048v23.619h-19.048v-23.619z"></path>
<path fill="#104d6a" d="M6.491 8.672h-1.851v-1.495h5.691v1.495h-1.824v9.614h-2.016v-9.614z"></path>
<path fill="#104d6a" d="M12.251 14.021l-1.659-3.662h1.824l1.015 2.194 0.877-2.194h1.591l-1.686 3.922 1.81 4.005h-1.838l-1.111-2.427-0.932 2.427h-1.618l1.728-4.265z"></path>
</svg>